<?xml version="1.0" encoding="utf-8"?>
<!-- Uploaded to: SVG Repo, www.svgrepo.com, Generator: SVG Repo Mixer Tools -->
<svg xmlns="http://www.w3.org/2000/svg" xmlns:xlink="http://www.w3.org/1999/xlink" version="1.1" id="lightingbolt"
	viewBox="0 0 188.0001 232.9621" enable-background="new 0 0 188.0001 232.9621" xml:space="preserve" width="128" height="128">
<g>
	<path fill="#D0E8FF" d="M87.855,109.2668V24.9114L38.6264,148.8918h69.4609c2.209,0,4,1.7891,4,4v56.5781l41.2207-96.2031H91.855   C89.646,113.2668,87.855,111.4778,87.855,109.2668z"/>
	<path fill="#1C71DA" d="M162.7143,107.0637c-0.7402-1.1211-1.9961-1.7969-3.3398-1.7969H95.855V3.9973   c0-1.918-1.3633-3.5664-3.248-3.9297c-1.877-0.3477-3.7598,0.6719-4.4688,2.4531L29.0171,151.4153   c-0.4902,1.2305-0.3379,2.625,0.4082,3.7227c0.7441,1.0977,1.9824,1.7539,3.3086,1.7539h71.3535v72.0703   c0,1.8984,1.3359,3.5352,3.1953,3.918c0.2695,0.0547,0.5391,0.082,0.8066,0.082c1.5723,0,3.0352-0.9336,3.6738-2.4258   l51.2871-119.6953C163.5815,109.6067,163.4546,108.1887,162.7143,107.0637z M112.0874,209.4699v-56.5781c0-2.2109-1.791-4-4-4   H38.6264L87.855,24.9114v84.3555c0,2.2109,1.791,4,4,4h61.4531L112.0874,209.4699z"/>
</g>
<path fill="#FF5D5D" d="M136.0001,47.1961c-1.0239,0-2.0474-0.3906-2.8286-1.1719c-1.562-1.5615-1.562-4.0947,0-5.6562  l14.1421-14.1416c1.563-1.5625,4.0952-1.5615,5.6572,0s1.562,4.0947,0,5.6562l-14.1421,14.1416  C138.0475,46.8055,137.0236,47.1961,136.0001,47.1961z"/>
<path fill="#FF5D5D" d="M150.1422,47.1971c-1.0239,0-2.0474-0.3906-2.8286-1.1719l-14.1421-14.1426  c-1.562-1.5615-1.562-4.0947,0-5.6562c1.563-1.5625,4.0952-1.5615,5.6572,0l14.1421,14.1426c1.562,1.5615,1.562,4.0947,0,5.6562  C152.1896,46.8065,151.1656,47.1971,150.1422,47.1971z"/>
<path fill="#00D40B" d="M174.0001,191.1962c-7.7197,0-14-6.2803-14-14s6.2803-14,14-14s14,6.2803,14,14  S181.7198,191.1962,174.0001,191.1962z M174.0001,171.1962c-3.3086,0-6,2.6914-6,6s2.6914,6,6,6s6-2.6914,6-6  S177.3087,171.1962,174.0001,171.1962z"/>
<path fill="#FFC504" d="M15.3136,85.8241c-1.0239,0-2.0474-0.3906-2.8286-1.1719L1.1715,73.3387  c-1.562-1.5615-1.562-4.0947,0-5.6562L12.485,56.368c0.75-0.75,1.7676-1.1719,2.8286-1.1719s2.0781,0.4219,2.8286,1.1719  l11.314,11.3145c0.75,0.75,1.1714,1.7676,1.1714,2.8281s-0.4214,2.0781-1.1719,2.8281l-11.314,11.3135  C17.361,85.4334,16.337,85.8241,15.3136,85.8241z M9.6569,70.5106l5.6567,5.6562l5.6572-5.6562l-5.6572-5.6572L9.6569,70.5106z"/>
</svg>
